<?xml version="1.0" standalone="no"?>
<!DOCTYPE svg PUBLIC "-//W3C//DTD SVG 20010904//EN"
 "http://www.w3.org/TR/2001/REC-SVG-20010904/DTD/svg10.dtd">
<svg version="1.0" xmlns="http://www.w3.org/2000/svg"
 width="1200.000000pt" height="1200.000000pt" viewBox="0 0 1200.000000 1200.000000"
 preserveAspectRatio="xMidYMid meet">
<metadata>
Created by potrace 1.14, written by Peter Selinger 2001-2017
</metadata>
<g transform="translate(0.000000,1200.000000) scale(0.100000,-0.100000)"
fill="#000000" stroke="none">
<path d="M2396 10112 c-2 -4 -4 -71 -4 -149 l-1 -142 47 -7 c26 -4 56 -8 67
-10 11 -2 45 -8 75 -14 266 -49 482 -157 558 -278 17 -26 80 -180 141 -342 61
-162 115 -304 120 -315 5 -11 14 -36 21 -55 7 -19 18 -48 25 -65 6 -16 17 -43
23 -60 20 -53 223 -589 229 -605 3 -8 14 -35 23 -60 9 -25 87 -232 174 -460
87 -228 237 -622 333 -875 219 -576 223 -586 233 -610 5 -11 36 -94 70 -185
34 -91 65 -174 70 -185 5 -11 68 -177 140 -370 73 -192 138 -364 146 -382 8
-17 14 -34 14 -38 0 -4 6 -21 14 -38 8 -18 66 -169 129 -337 138 -366 187
-493 302 -795 48 -126 97 -257 110 -290 55 -147 197 -522 206 -544 12 -28 26
-26 208 29 239 72 393 139 514 221 72 49 113 89 153 149 42 64 45 72 130 310
41 118 97 276 124 350 98 274 432 1215 434 1225 2 6 7 21 13 35 5 14 36 99 68
190 31 91 81 233 111 315 117 330 145 407 204 575 156 444 182 516 190 535 4
11 18 49 30 85 12 36 26 74 30 85 5 11 88 245 185 520 97 275 181 514 188 530
6 17 12 32 12 35 0 3 10 32 22 65 29 78 211 591 256 720 20 55 59 165 88 245
28 80 66 188 84 240 42 126 65 169 114 213 59 54 138 89 301 135 117 33 375
93 450 105 36 6 38 16 38 161 l0 144 -1182 0 -1181 1 0 -147 0 -146 35 -7 c19
-4 98 -17 175 -29 143 -22 290 -55 380 -85 135 -46 196 -110 189 -197 -3 -31
-83 -265 -269 -783 -23 -66 -64 -181 -90 -255 -25 -74 -50 -144 -55 -155 -9
-20 -180 -505 -305 -860 -36 -104 -70 -199 -75 -210 -4 -11 -40 -112 -80 -225
-39 -113 -82 -234 -96 -270 -13 -36 -73 -207 -134 -380 -61 -173 -115 -324
-120 -335 -5 -11 -23 -60 -39 -110 -17 -49 -55 -160 -86 -245 -31 -85 -61
-171 -67 -190 -5 -19 -16 -48 -23 -65 -7 -16 -34 -91 -60 -165 -26 -74 -67
-191 -92 -260 -95 -267 -166 -469 -194 -550 -16 -46 -33 -88 -37 -92 -4 -3
-56 125 -116 285 -60 161 -115 306 -122 322 -12 27 -85 222 -209 555 -25 69
-50 134 -55 145 -5 11 -32 83 -60 160 -51 139 -56 153 -79 209 -7 16 -72 189
-146 385 -333 886 -416 1107 -425 1126 -4 11 -20 54 -35 95 -15 41 -31 84 -36
95 -4 11 -49 130 -99 265 -50 135 -95 254 -100 265 -11 24 -36 90 -135 355
-42 113 -94 250 -115 305 -47 122 -105 278 -137 365 -13 36 -28 74 -33 85 -24
55 -50 139 -50 166 0 65 40 123 112 160 64 33 189 68 298 85 25 3 53 8 62 9
20 4 123 15 191 20 26 3 51 6 55 9 4 2 7 69 7 148 l0 143 -1287 2 c-708 1
-1290 -2 -1292 -5z"/>
</g>
</svg>
